# xmcd
#
# Track frame offsets: 
#        150
#        15050
#        28840
#        42910
#        56907
#        73032
#        86009
#        99869
#        114158
#        129262
#        150501
#        168348
#        184367
#        198949
#        221897
#        239517
#
# Disc length: 3447 seconds
#
# Revision: 0
# Processed by: cddbd v1.5.1PL2 Copyright (c) Steve Scherf et al.
# Submitted via: ExactAudioCopy v0.95b4
#
DISCID=d10d7510
DTITLE=Arash - Arash
DYEAR=1995
DGENRE=Persian
TTITLE0=Tike Tike Kardi
TTITLE1=Ylla
TTITLE2=Boro Boro
TTITLE3=Ey Yar Begoo (featuring Ebi)
TTITLE4=Temtpation (featuring Rebecca)
TTITLE5=Bombay Dreams (feat. REBEKA, Anne Lee)
TTITLE6=Man o To
TTITLE7=Salamati (Duet with DJ Aligator)
TTITLE8=Baskon (feat. Timbuktu)
TTITLE9=Music is my Laguage (DJ Aligator)
TTITLE10=Arash (feat. Helena)
TTITLE11=Behnaz
TTITLE12=Boro Boro (Bollywood Cafe Remix)
TTITLE13=Tike Tike Kardi (Payami Lounge Remix)
TTITLE14=Bora Bora (House Mix)
TTITLE15=Boro Boro (Funky Sunday Remix)
EXTD=
EXTT0=
EXTT1=
EXTT2=
EXTT3=
EXTT4=
EXTT5=
EXTT6=
EXTT7=
EXTT8=
EXTT9=
EXTT10=
EXTT11=
EXTT12=
EXTT13=
EXTT14=
EXTT15=
PLAYORDER=
